<?xml version="1.0" encoding="utf-8"?>
<!-- Generator: Adobe Illustrator 22.0.1, SVG Export Plug-In . SVG Version: 6.00 Build 0)  -->
<svg version="1.1" id="Layer_1" xmlns="http://www.w3.org/2000/svg" xmlns:xlink="http://www.w3.org/1999/xlink" x="0px" y="0px"
	 viewBox="0 0 512 512" style="enable-background:new 0 0 512 512;" xml:space="preserve">
<style type="text/css">
	.st0{fill:#35216D;}
	.st1{fill:#EDF3FC;}
	.st2{fill:#330D84;}
	.st3{fill:#FFBE1B;}
	.st4{fill:#0061F3;}
	.st5{fill:#8C7BFD;}
	.st6{fill:#FFFFFF;}
	.st7{fill:#5932AE;}
	.st8{fill:#1C46C4;}
	.st9{fill:#6857E5;}
	.st10{fill:#5D8EF9;}
	.st11{fill:#8AC9F9;}
	.st12{fill:#FFE37B;}
	.st13{fill:#FFD000;}
	.st14{fill:#2EF39E;}
	.st15{fill:#330D84;stroke:#330D84;stroke-width:0.6306;stroke-linecap:round;stroke-linejoin:round;stroke-miterlimit:10;}
	.st16{fill:#FFFFFF;stroke:#FFFFFF;stroke-width:0.737;stroke-linecap:round;stroke-linejoin:round;stroke-miterlimit:10;}
	.st17{fill:none;}
	.st18{fill:#FDB813;}
</style>
<g>
	<g>
		<g>
			<path class="st1" d="M255.999,40.928c-118.778,0-215.071,96.294-215.071,215.074c0,118.776,96.292,215.068,215.071,215.068
				S471.07,374.778,471.07,256.002C471.07,137.222,374.777,40.928,255.999,40.928z"/>
		</g>
	</g>
	<g>
		<g>
			<path class="st1" d="M255.999,1C115.391,1,1,115.392,1,256.002C1,396.609,115.391,511,255.999,511S511,396.609,511,256.002
				C511,115.392,396.607,1,255.999,1z M255.999,502.832c-136.103,0-246.83-110.728-246.83-246.83
				c0-136.104,110.727-246.833,246.83-246.833c136.102,0,246.832,110.729,246.832,246.833
				C502.831,392.104,392.101,502.832,255.999,502.832z"/>
		</g>
	</g>
	<path class="st3" d="M178.665,119.318l2.386,0.598l-2.386,0.598c-13.969,3.5-24.87,14.405-28.369,28.374l-0.601,2.383l-0.599-2.383
		c-3.499-13.969-14.403-24.874-28.376-28.374l-2.377-0.598l2.377-0.598c13.973-3.5,24.877-14.408,28.376-28.369l0.599-2.381
		l0.601,2.381C153.795,104.91,164.696,115.818,178.665,119.318L178.665,119.318z"/>
	<path class="st10" d="M223.217,399.809l2.386,0.598l-2.386,0.598c-13.969,3.5-24.87,14.405-28.369,28.374l-0.601,2.383
		l-0.599-2.383c-3.499-13.969-14.403-24.874-28.376-28.374l-2.377-0.598l2.377-0.598c13.973-3.5,24.877-14.408,28.376-28.369
		l0.599-2.381l0.601,2.381C198.347,385.4,209.249,396.309,223.217,399.809L223.217,399.809z"/>
	<path class="st2" d="M440.518,307.009l2.033,0.51l-2.033,0.508c-11.902,2.984-21.19,12.273-24.172,24.176l-0.511,2.029l-0.51-2.029
		c-2.98-11.902-12.272-21.191-24.177-24.176l-2.025-0.508l2.025-0.51c11.904-2.982,21.196-12.273,24.177-24.173l0.51-2.027
		l0.511,2.027C419.328,294.735,428.615,304.026,440.518,307.009L440.518,307.009z"/>
	<path class="st10" d="M297.973,298.495H182.992c-12.883,0-23.323-10.442-23.323-23.327v-96.296h-22.057
		c-12.881,0-23.322,10.445-23.322,23.32v103.229c0,12.885,10.441,23.327,23.322,23.327l-14.3,56.635l80.911-56.635h114.981
		c5.538,0,10.622-1.934,14.622-5.158L297.973,298.495z"/>
	<path class="st2" d="M364.585,298.495l14.3,56.635l-80.911-56.635H182.992c-12.883,0-23.323-10.442-23.323-23.327V171.939
		c0-12.875,10.441-23.32,23.323-23.32h181.593c12.881,0,23.322,10.445,23.322,23.32v103.229
		C387.907,288.054,377.466,298.495,364.585,298.495L364.585,298.495z"/>
	
		<ellipse transform="matrix(0.9239 -0.3827 0.3827 0.9239 -67.8204 100.7636)" class="st3" cx="219.376" cy="220.86" rx="17.136" ry="17.136"/>
	
		<ellipse transform="matrix(0.9239 -0.3827 0.3827 0.9239 -63.6787 121.5858)" class="st3" cx="273.787" cy="220.86" rx="17.136" ry="17.136"/>
	
		<ellipse transform="matrix(0.9239 -0.3827 0.3827 0.9239 -59.5369 142.408)" class="st3" cx="328.198" cy="220.86" rx="17.136" ry="17.136"/>
	<path class="st10" d="M267.223,365.981l1.323,0.333l-1.323,0.331c-7.777,1.947-13.848,8.017-15.793,15.794l-0.332,1.323
		l-0.334-1.323c-1.947-7.777-8.016-13.847-15.791-15.794l-1.324-0.331l1.324-0.333c7.775-1.946,13.844-8.017,15.791-15.789
		l0.334-1.327l0.332,1.327C253.375,357.964,259.445,364.034,267.223,365.981L267.223,365.981z"/>
</g>
</svg>
